<mxfile host="app.diagrams.net" modified="2024-05-21T13:14:06.657Z" agent="Mozilla/5.0 (Windows NT 10.0; Win64; x64) AppleWebKit/537.36 (KHTML, like Gecko) Chrome/123.0.0.0 Safari/537.36 OPR/109.0.0.0" etag="Og5Kry6aJQRvaYplIzxt" version="24.4.4" type="device">
  <diagram name="Página-1" id="Az1MBVrLItpsRqSeYvPm">
    <mxGraphModel dx="1393" dy="758" grid="1" gridSize="10" guides="1" tooltips="1" connect="1" arrows="1" fold="1" page="1" pageScale="1" pageWidth="827" pageHeight="1169" math="0" shadow="0">
      <root>
        <mxCell id="0" />
        <mxCell id="1" parent="0" />
        <mxCell id="jO8XkhJTbPjd5lJuH_p3-4" value="" style="rounded=0;whiteSpace=wrap;html=1;fontColor=#000000;fillColor=#000000;fillStyle=solid;gradientColor=none;strokeColor=none;" vertex="1" parent="1">
          <mxGeometry x="705" y="250" width="20" height="270" as="geometry" />
        </mxCell>
        <mxCell id="m6o7njRmxbO1QwIaCAdQ-1" value="Diagrama de Sequência: Buscar" style="text;html=1;align=center;verticalAlign=middle;whiteSpace=wrap;rounded=0;fontSize=20;" parent="1" vertex="1">
          <mxGeometry x="230" y="10" width="319" height="30" as="geometry" />
        </mxCell>
        <mxCell id="m6o7njRmxbO1QwIaCAdQ-2" value="Usuário" style="shape=umlActor;verticalLabelPosition=bottom;verticalAlign=top;html=1;outlineConnect=0;" parent="1" vertex="1">
          <mxGeometry x="254.5" y="120" width="31" height="60" as="geometry" />
        </mxCell>
        <mxCell id="m6o7njRmxbO1QwIaCAdQ-5" value="" style="rounded=0;whiteSpace=wrap;html=1;fontColor=#000000;fillColor=#000000;fillStyle=solid;gradientColor=none;strokeColor=none;" parent="1" vertex="1">
          <mxGeometry x="260" y="240" width="20" height="270" as="geometry" />
        </mxCell>
        <mxCell id="m6o7njRmxbO1QwIaCAdQ-20" style="edgeStyle=orthogonalEdgeStyle;rounded=0;orthogonalLoop=1;jettySize=auto;html=1;exitX=1;exitY=0.75;exitDx=0;exitDy=0;entryX=0.008;entryY=0.607;entryDx=0;entryDy=0;entryPerimeter=0;" parent="1" edge="1">
          <mxGeometry relative="1" as="geometry">
            <mxPoint x="544" y="350" as="sourcePoint" />
            <mxPoint x="705.1600000000001" y="350.3499999999999" as="targetPoint" />
            <Array as="points">
              <mxPoint x="670" y="350" />
              <mxPoint x="670" y="350" />
            </Array>
          </mxGeometry>
        </mxCell>
        <mxCell id="m6o7njRmxbO1QwIaCAdQ-21" value="Verificar(URL)" style="edgeLabel;html=1;align=center;verticalAlign=middle;resizable=0;points=[];" parent="m6o7njRmxbO1QwIaCAdQ-20" vertex="1" connectable="0">
          <mxGeometry x="0.3241" y="2" relative="1" as="geometry">
            <mxPoint x="-31" y="-8" as="offset" />
          </mxGeometry>
        </mxCell>
        <mxCell id="m6o7njRmxbO1QwIaCAdQ-6" value="" style="rounded=0;whiteSpace=wrap;html=1;fontColor=#000000;fillColor=#000000;fillStyle=solid;gradientColor=none;strokeColor=none;" parent="1" vertex="1">
          <mxGeometry x="524" y="250" width="20" height="80" as="geometry" />
        </mxCell>
        <mxCell id="m6o7njRmxbO1QwIaCAdQ-7" value="" style="endArrow=none;dashed=1;html=1;rounded=0;exitX=0.5;exitY=0;exitDx=0;exitDy=0;" parent="1" source="m6o7njRmxbO1QwIaCAdQ-5" target="m6o7njRmxbO1QwIaCAdQ-2" edge="1">
          <mxGeometry width="50" height="50" relative="1" as="geometry">
            <mxPoint x="419" y="290" as="sourcePoint" />
            <mxPoint x="199" y="220" as="targetPoint" />
          </mxGeometry>
        </mxCell>
        <mxCell id="m6o7njRmxbO1QwIaCAdQ-8" value="" style="endArrow=none;dashed=1;html=1;rounded=0;exitX=0.5;exitY=0;exitDx=0;exitDy=0;" parent="1" source="jO8XkhJTbPjd5lJuH_p3-3" edge="1">
          <mxGeometry width="50" height="50" relative="1" as="geometry">
            <mxPoint x="533.5" y="240" as="sourcePoint" />
            <mxPoint x="533.5" y="170" as="targetPoint" />
          </mxGeometry>
        </mxCell>
        <mxCell id="m6o7njRmxbO1QwIaCAdQ-9" value="" style="endArrow=classic;html=1;rounded=0;entryX=0.05;entryY=0.14;entryDx=0;entryDy=0;entryPerimeter=0;" parent="1" target="m6o7njRmxbO1QwIaCAdQ-6" edge="1">
          <mxGeometry width="50" height="50" relative="1" as="geometry">
            <mxPoint x="280" y="260" as="sourcePoint" />
            <mxPoint x="523" y="260" as="targetPoint" />
          </mxGeometry>
        </mxCell>
        <mxCell id="m6o7njRmxbO1QwIaCAdQ-10" value="Solicitar(URL)" style="edgeLabel;html=1;align=center;verticalAlign=middle;resizable=0;points=[];" parent="m6o7njRmxbO1QwIaCAdQ-9" vertex="1" connectable="0">
          <mxGeometry x="-0.7425" y="-2" relative="1" as="geometry">
            <mxPoint x="88" y="-12" as="offset" />
          </mxGeometry>
        </mxCell>
        <mxCell id="m6o7njRmxbO1QwIaCAdQ-16" value="&lt;font style=&quot;font-size: 14px;&quot;&gt;Cache&lt;/font&gt;" style="rounded=0;whiteSpace=wrap;html=1;gradientColor=none;fillColor=none;strokeWidth=11;" parent="1" vertex="1">
          <mxGeometry x="650" y="120" width="130" height="50" as="geometry" />
        </mxCell>
        <mxCell id="m6o7njRmxbO1QwIaCAdQ-17" value="" style="rounded=0;whiteSpace=wrap;html=1;fontColor=#000000;fillColor=#000000;fillStyle=solid;gradientColor=none;strokeColor=none;" parent="1" vertex="1">
          <mxGeometry x="705" y="280" width="20" height="50" as="geometry" />
        </mxCell>
        <mxCell id="m6o7njRmxbO1QwIaCAdQ-18" value="" style="endArrow=none;dashed=1;html=1;rounded=0;entryX=0.5;entryY=1;entryDx=0;entryDy=0;exitX=0.5;exitY=0;exitDx=0;exitDy=0;" parent="1" source="m6o7njRmxbO1QwIaCAdQ-17" target="m6o7njRmxbO1QwIaCAdQ-16" edge="1">
          <mxGeometry width="50" height="50" relative="1" as="geometry">
            <mxPoint x="400" y="330" as="sourcePoint" />
            <mxPoint x="450" y="280" as="targetPoint" />
          </mxGeometry>
        </mxCell>
        <mxCell id="m6o7njRmxbO1QwIaCAdQ-22" value="" style="rounded=0;whiteSpace=wrap;html=1;fontColor=#000000;fillColor=#000000;fillStyle=solid;gradientColor=none;strokeColor=none;" parent="1" vertex="1">
          <mxGeometry x="524" y="370" width="20" height="80" as="geometry" />
        </mxCell>
        <mxCell id="m6o7njRmxbO1QwIaCAdQ-26" value="Retornar(Conteúdo)" style="html=1;verticalAlign=bottom;endArrow=open;dashed=1;endSize=8;curved=0;rounded=0;exitX=0;exitY=0.5;exitDx=0;exitDy=0;" parent="1" edge="1">
          <mxGeometry relative="1" as="geometry">
            <mxPoint x="524" y="480" as="sourcePoint" />
            <mxPoint x="280" y="480" as="targetPoint" />
            <Array as="points">
              <mxPoint x="350" y="482" />
            </Array>
          </mxGeometry>
        </mxCell>
        <mxCell id="QWoGaYasi8DG62Bnixs3-18" value="" style="endArrow=none;dashed=1;html=1;rounded=0;exitX=0.5;exitY=0;exitDx=0;exitDy=0;" parent="1" source="QWoGaYasi8DG62Bnixs3-17" edge="1">
          <mxGeometry width="50" height="50" relative="1" as="geometry">
            <mxPoint x="351" y="1440" as="sourcePoint" />
            <mxPoint x="96" y="1520" as="targetPoint" />
          </mxGeometry>
        </mxCell>
        <mxCell id="jO8XkhJTbPjd5lJuH_p3-1" value="&lt;font style=&quot;font-size: 14px;&quot;&gt;URL Frontier&lt;/font&gt;" style="rounded=0;whiteSpace=wrap;html=1;gradientColor=none;fillColor=none;strokeWidth=11;" vertex="1" parent="1">
          <mxGeometry x="475" y="120" width="130" height="50" as="geometry" />
        </mxCell>
        <mxCell id="jO8XkhJTbPjd5lJuH_p3-3" value="" style="rounded=0;whiteSpace=wrap;html=1;fontColor=#000000;fillColor=#000000;fillStyle=solid;gradientColor=none;strokeColor=none;" vertex="1" parent="1">
          <mxGeometry x="524" y="250" width="20" height="270" as="geometry" />
        </mxCell>
        <mxCell id="jO8XkhJTbPjd5lJuH_p3-12" value="Verificar(URL)" style="html=1;verticalAlign=bottom;endArrow=open;dashed=1;endSize=8;curved=0;rounded=0;entryX=1.05;entryY=0.808;entryDx=0;entryDy=0;entryPerimeter=0;exitX=1.15;exitY=0.378;exitDx=0;exitDy=0;exitPerimeter=0;" edge="1" parent="1" source="jO8XkhJTbPjd5lJuH_p3-4">
          <mxGeometry x="0.1613" y="-10" relative="1" as="geometry">
            <mxPoint x="890" y="330.4" as="sourcePoint" />
            <mxPoint x="721" y="329.9999999999999" as="targetPoint" />
            <Array as="points">
              <mxPoint x="760" y="352" />
              <mxPoint x="760" y="330" />
            </Array>
            <mxPoint x="10" y="10" as="offset" />
          </mxGeometry>
        </mxCell>
        <mxCell id="jO8XkhJTbPjd5lJuH_p3-16" value="Conteúdo encontrado" style="html=1;verticalAlign=bottom;endArrow=open;dashed=1;endSize=8;curved=0;rounded=0;entryX=1.05;entryY=0.808;entryDx=0;entryDy=0;entryPerimeter=0;" edge="1" parent="1">
          <mxGeometry x="0.0843" relative="1" as="geometry">
            <mxPoint x="705" y="420.4" as="sourcePoint" />
            <mxPoint x="539" y="419.9999999999999" as="targetPoint" />
            <Array as="points">
              <mxPoint x="694" y="420.4" />
            </Array>
            <mxPoint as="offset" />
          </mxGeometry>
        </mxCell>
      </root>
    </mxGraphModel>
  </diagram>
</mxfile>
